<svg height="15" viewBox="0 0 16.61 18" xmlns="http://www.w3.org/2000/svg"><path d="M0 2.76C.29 1.47 1.28.77 2.31.14c.23-.14.61-.17.89-.11.86.19 1.58.61 1.79 1.56.22.97.43 1.94.65 2.92.09.39-.05.73-.32 1.01-.37.38-.74.77-1.15 1.11-.26.22-.28.4-.15.69.73 1.64 1.75 3.08 3.07 4.3.78.72 1.59 1.39 2.51 1.92.19.11.31.1.48-.05.41-.37.84-.71 1.28-1.05.36-.28.76-.37 1.2-.2 1 .37 2.02.68 2.98 1.12 1.15.53 1.42 2.11.56 3.05-.32.35-.68.67-1.04.97-.63.54-1.37.7-2.2.6-3.44-.39-6.3-1.93-8.66-4.43C1.87 11.06.51 8.09.08 4.7.06 4.52.03 4.34 0 4.16v-1.4Z" style="fill: brown"></path></svg>