<svg xmlns="http://www.w3.org/2000/svg" viewBox="0 0 39.98 40" width="40"><g><g><path d="M18.74 0h2.5c.1.02.2.06.3.06 3.11.23 6.03 1.13 8.68 2.76 5.16 3.18 8.34 7.75 9.45 13.72.14.73.21 1.46.31 2.2v2.5c-.02.1-.06.2-.06.3-.23 3.07-1.15 5.93-2.7 8.59-3.99 6.87-12.04 10.8-19.9 9.67-5.34-.77-9.72-3.26-13.06-7.5C.96 28.11-.4 23.3.1 17.99.51 13.73 2.16 9.98 5 6.78 8.11 3.28 11.97 1.11 16.58.3c.72-.12 1.44-.2 2.16-.3ZM8.45 20c.07 1.9.07 3.82.23 5.72.24 2.91 2.27 5.09 5.15 5.5 1.45.21 2.93.23 4.4.23 2.48 0 4.97.01 7.45-.16 2.3-.16 4.04-1.34 5.05-3.47.44-.93.64-1.93.65-2.95.04-2.69.06-5.39.07-8.08 0-.84-.06-1.69-.14-2.53-.3-2.92-2.27-5.08-5.16-5.5-1.43-.21-2.9-.23-4.36-.23-2.5 0-5-.01-7.49.16-3.1.21-5.36 2.51-5.62 5.61-.16 1.89-.16 3.79-.23 5.71Z" style="fill:black;"></path><path d="M11.78 19.98c.04-1.51.05-3.01.14-4.51.13-2.11 1.44-3.43 3.55-3.55 3.02-.17 6.05-.17 9.08 0 2.06.12 3.44 1.45 3.49 3.52.08 3.01.08 6.03 0 9.04-.06 2.13-1.43 3.5-3.56 3.56-3 .08-6.01.08-9.01 0-2.11-.06-3.43-1.43-3.55-3.53-.09-1.51-.1-3.03-.14-4.54Zm8.2-5.11c-2.83 0-5.1 2.27-5.11 5.1a5.12 5.12 0 0 0 5.12 5.13c2.82 0 5.1-2.28 5.11-5.1a5.113 5.113 0 0 0-5.12-5.13Zm6.52-.21c0-.65-.53-1.18-1.18-1.18-.67 0-1.2.53-1.2 1.2 0 .66.52 1.18 1.18 1.18.67 0 1.21-.53 1.2-1.2Z" style="fill:black;"></path><path d="M19.98 22.74c-1.51 0-2.74-1.24-2.74-2.75a2.76 2.76 0 0 1 2.77-2.75c1.51.01 2.74 1.25 2.73 2.77 0 1.51-1.25 2.74-2.76 2.74Z" style="fill:black;"></path></g></g></svg>